<?xml version="1.0" encoding="UTF-8"?>
<svg id="Layer_1" data-name="Layer 1" xmlns="http://www.w3.org/2000/svg" viewBox="0 0 512 512">
  <defs>
    <style>
      .cls-1 {
        fill: #fff;
      }

      .cls-1, .cls-2 {
        stroke-width: 0px;
      }

      .cls-2 {
        fill: #44abe0;
      }
    </style>
  </defs>
  <circle class="cls-2" cx="256" cy="256" r="240"/>
  <path class="cls-1" d="M245.58,495.8l226.84-343.56c-.54-1.12-1.1-2.23-1.65-3.34L154.23,473.36c28.64,13.38,59.72,21.03,91.35,22.44Z"/>
  <path class="cls-1" d="M16.88,235.46l439.26-111.9c-.68-1.04-1.36-2.08-2.06-3.1l-410.95,24.67c-14.6,28.1-23.51,58.84-26.24,90.33Z"/>
  <path class="cls-2" d="M456.07,123.46l-141.88,69.77-52.37-90.71-8.66,5c-17.05,9.84-25.7,31.57-24.19,60.15l-154.84,89.4c-2.64-1.92-5.64-3.35-8.88-4.22-6.96-1.87-14.23-.91-20.47,2.7l-22.55,13.02c-2.1,1.21-4,2.69-5.67,4.36,1.45,20.76,5.64,41.52,12.68,61.75l45.24,78.36c14,16.22,29.88,30.22,47.13,41.86,2.29-.61,4.51-1.51,6.61-2.73l22.55-13.02c9.5-5.48,14.4-15.91,13.34-26.18l154.85-89.41c9.24,6.03,18.33,10.26,27.1,12.61,13.88,3.72,26.7,2.51,37.09-3.48l8.66-5-52.37-90.71,131.36-87.99c-2.18-4.37-4.49-8.71-6.97-13-2.48-4.29-5.08-8.46-7.77-12.54Z"/>
  <path class="cls-1" d="M461.45,131.96l-151.24,74.37-32.05-55.51-20-34.64c-15.39,8.88-21.49,30.25-18.73,57l-166.95,96.39.49.85c-4.69-8.12-15.07-10.9-23.2-6.21l-22.55,13.02c-5.64,3.26-8.7,9.26-8.47,15.34.21,1.34.42,2.67.65,4,.38,1.32.9,2.61,1.61,3.85l79.02,136.87c.72,1.24,1.58,2.34,2.53,3.32,1.04.86,2.09,1.72,3.14,2.56,5.16,3.24,11.88,3.59,17.52.33l22.55-13.02c8.12-4.69,10.9-15.07,6.22-23.2l.49.85,166.95-96.39c21.79,15.77,43.34,21.17,58.73,12.28l-20-34.64-32.05-55.51,140.03-93.79c-.76-1.37-1.51-2.74-2.3-4.1s-1.59-2.7-2.4-4.04Z"/>
</svg>